<svg xmlns="http://www.w3.org/2000/svg" style="display: none;">

    <symbol id="logoGithub" viewBox="0 0 438.536 438.536">
        <path d="M158.173,352.599c-3.049,0.568-4.381,1.999-3.999,4.281c0.38,2.283,2.093,3.046,5.138,2.283    c3.049-0.76,4.38-2.095,3.997-3.997C162.931,353.074,161.218,352.216,158.173,352.599z"/>
        <path d="M141.898,354.885c-3.046,0-4.568,1.041-4.568,3.139c0,2.474,1.619,3.518,4.853,3.138c3.046,0,4.57-1.047,4.57-3.138    C146.753,355.553,145.134,354.502,141.898,354.885z"/>
        <path d="M119.629,354.022c-0.76,2.095,0.478,3.519,3.711,4.284c2.855,1.137,4.664,0.568,5.424-1.714    c0.572-2.091-0.666-3.61-3.711-4.568C122.197,351.265,120.39,351.922,119.629,354.022z"/>
        <path d="M414.41,24.123C398.326,8.042,378.964,0,356.309,0H82.225C59.577,0,40.208,8.042,24.123,24.123    C8.042,40.207,0,59.576,0,82.225v274.088c0,22.65,8.042,42.017,24.123,58.098c16.084,16.084,35.454,24.126,58.102,24.126h63.953    c4.184,0,7.327-0.144,9.42-0.424c2.092-0.288,4.184-1.526,6.279-3.717c2.096-2.187,3.14-5.376,3.14-9.562    c0-0.568-0.05-7.046-0.144-19.417c-0.097-12.375-0.144-22.176-0.144-29.41l-6.567,1.143c-4.187,0.76-9.469,1.095-15.846,0.999    c-6.374-0.096-12.99-0.76-19.841-1.998c-6.855-1.239-13.229-4.093-19.13-8.562c-5.898-4.477-10.085-10.328-12.56-17.559    l-2.856-6.571c-1.903-4.373-4.899-9.229-8.992-14.554c-4.093-5.332-8.232-8.949-12.419-10.852l-1.999-1.428    c-1.331-0.951-2.568-2.098-3.711-3.429c-1.141-1.335-1.997-2.669-2.568-3.997c-0.571-1.335-0.097-2.43,1.427-3.289    c1.524-0.855,4.281-1.279,8.28-1.279l5.708,0.855c3.808,0.76,8.516,3.042,14.134,6.851c5.614,3.806,10.229,8.754,13.846,14.843    c4.38,7.806,9.657,13.75,15.846,17.843c6.184,4.097,12.419,6.143,18.699,6.143s11.704-0.476,16.274-1.424    c4.565-0.954,8.848-2.385,12.847-4.288c1.713-12.751,6.377-22.559,13.988-29.41c-10.848-1.143-20.602-2.854-29.265-5.14    c-8.658-2.286-17.605-5.995-26.835-11.136c-9.234-5.14-16.894-11.512-22.985-19.13c-6.09-7.618-11.088-17.61-14.987-29.978    c-3.901-12.375-5.852-26.652-5.852-42.829c0-23.029,7.521-42.637,22.557-58.814c-7.044-17.32-6.379-36.732,1.997-58.242    c5.52-1.714,13.706-0.428,24.554,3.855c10.85,4.286,18.794,7.951,23.84,10.992c5.046,3.042,9.089,5.614,12.135,7.71    c17.705-4.949,35.976-7.423,54.818-7.423c18.841,0,37.115,2.474,54.821,7.423l10.849-6.852c7.426-4.57,16.18-8.757,26.269-12.562    c10.088-3.806,17.795-4.854,23.127-3.14c8.562,21.51,9.328,40.922,2.279,58.241c15.036,16.179,22.559,35.786,22.559,58.815    c0,16.18-1.951,30.505-5.852,42.969c-3.898,12.467-8.939,22.463-15.13,29.981c-6.184,7.519-13.894,13.843-23.124,18.986    c-9.232,5.137-18.178,8.853-26.84,11.132c-8.661,2.286-18.414,4.004-29.263,5.147c9.891,8.562,14.839,22.072,14.839,40.538v68.238    c0,3.237,0.472,5.852,1.424,7.851c0.958,1.998,2.478,3.374,4.571,4.141c2.102,0.76,3.949,1.235,5.571,1.424    c1.622,0.191,3.949,0.287,6.995,0.287h63.953c22.648,0,42.018-8.042,58.095-24.126c16.084-16.084,24.126-35.454,24.126-58.102    V82.225C438.533,59.576,430.491,40.204,414.41,24.123z"/>
        <path d="M86.793,319.195c-1.331,0.948-1.141,2.471,0.572,4.565c1.906,1.902,3.427,2.189,4.57,0.855    c1.331-0.948,1.141-2.471-0.575-4.569C89.458,318.336,87.936,318.049,86.793,319.195z"/>
        <path d="M77.374,312.057c-0.57,1.335,0.096,2.478,1.999,3.426c1.521,0.955,2.762,0.767,3.711-0.568    c0.57-1.335-0.096-2.478-1.999-3.433C79.182,310.91,77.945,311.102,77.374,312.057z"/>
        <path d="M95.646,330.331c-1.715,0.948-1.715,2.666,0,5.137c1.713,2.478,3.328,3.142,4.853,1.998c1.714-1.334,1.714-3.142,0-5.427    C98.978,329.571,97.359,328.993,95.646,330.331z"/>
        <path d="M105.641,343.174c-1.714,1.526-1.336,3.327,1.142,5.428c2.281,2.279,4.185,2.566,5.708,0.849    c1.524-1.519,1.143-3.326-1.142-5.42C109.068,341.751,107.164,341.463,105.641,343.174z"/>
    </symbol>

    <symbol id="logoLinkedin" viewBox="0 0 430.117 430.118">
        <path id="LinkedIn__x28_alt_x29_" d="M398.355,0H31.782C14.229,0,0.002,13.793,0.002,30.817v368.471   c0,17.025,14.232,30.83,31.78,30.83h366.573c17.549,0,31.76-13.814,31.76-30.83V30.817C430.115,13.798,415.904,0,398.355,0z    M130.4,360.038H65.413V165.845H130.4V360.038z M97.913,139.315h-0.437c-21.793,0-35.92-14.904-35.92-33.563   c0-19.035,14.542-33.535,36.767-33.535c22.227,0,35.899,14.496,36.331,33.535C134.654,124.415,120.555,139.315,97.913,139.315z    M364.659,360.038h-64.966V256.138c0-26.107-9.413-43.921-32.907-43.921c-17.973,0-28.642,12.018-33.327,23.621   c-1.736,4.144-2.166,9.94-2.166,15.728v108.468h-64.954c0,0,0.85-175.979,0-194.192h64.964v27.531   c8.624-13.229,24.035-32.1,58.534-32.1c42.76,0,74.822,27.739,74.822,87.414V360.038z M230.883,193.99   c0.111-0.182,0.266-0.401,0.42-0.614v0.614H230.883z"/>
    </symbol>

    <symbol id="logoFacebook" viewBox="0 0 90 90">
        <path id="Facebook__x28_alt_x29_" d="M90,15.001C90,7.119,82.884,0,75,0H15C7.116,0,0,7.119,0,15.001v59.998   C0,82.881,7.116,90,15.001,90H45V56H34V41h11v-5.844C45,25.077,52.568,16,61.875,16H74v15H61.875C60.548,31,59,32.611,59,35.024V41   h15v15H59v34h16c7.884,0,15-7.119,15-15.001V15.001z"/>
    </symbol>

    <symbol id="iconPhone" viewBox="0 0 473.806 473.806">
        <path d="M374.456,293.506c-9.7-10.1-21.4-15.5-33.8-15.5c-12.3,0-24.1,5.3-34.2,15.4l-31.6,31.5c-2.6-1.4-5.2-2.7-7.7-4    c-3.6-1.8-7-3.5-9.9-5.3c-29.6-18.8-56.5-43.3-82.3-75c-12.5-15.8-20.9-29.1-27-42.6c8.2-7.5,15.8-15.3,23.2-22.8    c2.8-2.8,5.6-5.7,8.4-8.5c21-21,21-48.2,0-69.2l-27.3-27.3c-3.1-3.1-6.3-6.3-9.3-9.5c-6-6.2-12.3-12.6-18.8-18.6    c-9.7-9.6-21.3-14.7-33.5-14.7s-24,5.1-34,14.7c-0.1,0.1-0.1,0.1-0.2,0.2l-34,34.3c-12.8,12.8-20.1,28.4-21.7,46.5    c-2.4,29.2,6.2,56.4,12.8,74.2c16.2,43.7,40.4,84.2,76.5,127.6c43.8,52.3,96.5,93.6,156.7,122.7c23,10.9,53.7,23.8,88,26    c2.1,0.1,4.3,0.2,6.3,0.2c23.1,0,42.5-8.3,57.7-24.8c0.1-0.2,0.3-0.3,0.4-0.5c5.2-6.3,11.2-12,17.5-18.1c4.3-4.1,8.7-8.4,13-12.9    c9.9-10.3,15.1-22.3,15.1-34.6c0-12.4-5.3-24.3-15.4-34.3L374.456,293.506z M410.256,398.806    C410.156,398.806,410.156,398.906,410.256,398.806c-3.9,4.2-7.9,8-12.2,12.2c-6.5,6.2-13.1,12.7-19.3,20    c-10.1,10.8-22,15.9-37.6,15.9c-1.5,0-3.1,0-4.6-0.1c-29.7-1.9-57.3-13.5-78-23.4c-56.6-27.4-106.3-66.3-147.6-115.6    c-34.1-41.1-56.9-79.1-72-119.9c-9.3-24.9-12.7-44.3-11.2-62.6c1-11.7,5.5-21.4,13.8-29.7l34.1-34.1c4.9-4.6,10.1-7.1,15.2-7.1    c6.3,0,11.4,3.8,14.6,7c0.1,0.1,0.2,0.2,0.3,0.3c6.1,5.7,11.9,11.6,18,17.9c3.1,3.2,6.3,6.4,9.5,9.7l27.3,27.3    c10.6,10.6,10.6,20.4,0,31c-2.9,2.9-5.7,5.8-8.6,8.6c-8.4,8.6-16.4,16.6-25.1,24.4c-0.2,0.2-0.4,0.3-0.5,0.5    c-8.6,8.6-7,17-5.2,22.7c0.1,0.3,0.2,0.6,0.3,0.9c7.1,17.2,17.1,33.4,32.3,52.7l0.1,0.1c27.6,34,56.7,60.5,88.8,80.8    c4.1,2.6,8.3,4.7,12.3,6.7c3.6,1.8,7,3.5,9.9,5.3c0.4,0.2,0.8,0.5,1.2,0.7c3.4,1.7,6.6,2.5,9.9,2.5c8.3,0,13.5-5.2,15.2-6.9    l34.2-34.2c3.4-3.4,8.8-7.5,15.1-7.5c6.2,0,11.3,3.9,14.4,7.3c0.1,0.1,0.1,0.1,0.2,0.2l55.1,55.1    C420.456,377.706,420.456,388.206,410.256,398.806z"/>
        <path d="M256.056,112.706c26.2,4.4,50,16.8,69,35.8s31.3,42.8,35.8,69c1.1,6.6,6.8,11.2,13.3,11.2c0.8,0,1.5-0.1,2.3-0.2    c7.4-1.2,12.3-8.2,11.1-15.6c-5.4-31.7-20.4-60.6-43.3-83.5s-51.8-37.9-83.5-43.3c-7.4-1.2-14.3,3.7-15.6,11    S248.656,111.506,256.056,112.706z"/>
        <path d="M473.256,209.006c-8.9-52.2-33.5-99.7-71.3-137.5s-85.3-62.4-137.5-71.3c-7.3-1.3-14.2,3.7-15.5,11    c-1.2,7.4,3.7,14.3,11.1,15.6c46.6,7.9,89.1,30,122.9,63.7c33.8,33.8,55.8,76.3,63.7,122.9c1.1,6.6,6.8,11.2,13.3,11.2    c0.8,0,1.5-0.1,2.3-0.2C469.556,223.306,474.556,216.306,473.256,209.006z"/>
    </symbol>

    <symbol id="iconEmail" viewBox="0 0 483.3 483.3">
        <path d="M424.3,57.75H59.1c-32.6,0-59.1,26.5-59.1,59.1v249.6c0,32.6,26.5,59.1,59.1,59.1h365.1c32.6,0,59.1-26.5,59.1-59.1    v-249.5C483.4,84.35,456.9,57.75,424.3,57.75z M456.4,366.45c0,17.7-14.4,32.1-32.1,32.1H59.1c-17.7,0-32.1-14.4-32.1-32.1v-249.5    c0-17.7,14.4-32.1,32.1-32.1h365.1c17.7,0,32.1,14.4,32.1,32.1v249.5H456.4z"/>
        <path d="M304.8,238.55l118.2-106c5.5-5,6-13.5,1-19.1c-5-5.5-13.5-6-19.1-1l-163,146.3l-31.8-28.4c-0.1-0.1-0.2-0.2-0.2-0.3    c-0.7-0.7-1.4-1.3-2.2-1.9L78.3,112.35c-5.6-5-14.1-4.5-19.1,1.1c-5,5.6-4.5,14.1,1.1,19.1l119.6,106.9L60.8,350.95    c-5.4,5.1-5.7,13.6-0.6,19.1c2.7,2.8,6.3,4.3,9.9,4.3c3.3,0,6.6-1.2,9.2-3.6l120.9-113.1l32.8,29.3c2.6,2.3,5.8,3.4,9,3.4    c3.2,0,6.5-1.2,9-3.5l33.7-30.2l120.2,114.2c2.6,2.5,6,3.7,9.3,3.7c3.6,0,7.1-1.4,9.8-4.2c5.1-5.4,4.9-14-0.5-19.1L304.8,238.55z"/>
    </symbol>

</svg>
